1<svg width="1533" height="946" viewBox="0 0 1533 946" fill="none" xmlns="http://www.w3.org/2000/svg">
<path fill-rule="evenodd" clip-rule="evenodd" d="M0 0H1513C1524.05 0 1533 8.9543 1533 20V946H0V0Z" fill="white"/>
<mask id="mask0" mask-type="alpha" maskUnits="userSpaceOnUse" x="0" y="0" width="1533" height="946">
<path fill-rule="evenodd" clip-rule="evenodd" d="M0 0H1513C1524.05 0 1533 8.9543 1533 20V946H0V0Z" fill="white"/>
</mask>
<g mask="url(#mask0)">
<g opacity="0.150205">
<path d="M976.708 186.931C976.708 174.851 979.888 163.513 985.456 153.71" stroke="#F28464" stroke-width="2"/>
<path d="M1015.19 247.805C997.782 239.531 984.486 224.012 979.199 205.143" stroke="#F28464" stroke-width="2"/>
<path d="M1108.4 206.962C1104.14 220.672 1095.61 232.504 1084.37 240.909C1073.13 249.315 1059.18 254.291 1044.07 254.291" stroke="#F28464" stroke-width="2"/>
<path d="M1070.29 124.863C1083.47 130.437 1094.5 140.085 1101.82 152.229C1107.92 162.365 1111.43 174.238 1111.43 186.931" stroke="#F28464" stroke-width="2"/>
<path d="M1006.52 130.997C1017.25 123.781 1030.17 119.57 1044.07 119.57" stroke="#F28464" stroke-width="2"/>
<mask id="mask1" mask-type="alpha" maskUnits="userSpaceOnUse" x="985" y="127" width="119" height="119">
<path fill-rule="evenodd" clip-rule="evenodd" d="M1003.13 144.986C980.236 167.875 980.236 204.985 1003.13 227.875C1026.01 250.764 1063.12 250.764 1086.01 227.875C1108.9 204.985 1108.9 167.875 1086.01 144.986C1074.57 133.541 1059.57 127.819 1044.57 127.819C1029.57 127.819 1014.57 133.541 1003.13 144.986Z" fill="white"/>
</mask>
<g mask="url(#mask1)">
<path fill-rule="evenodd" clip-rule="evenodd" d="M1086.01 227.875C1063.13 250.764 1026.01 250.764 1003.13 227.875C980.235 204.986 980.235 167.875 1003.13 144.986C1026.01 122.097 1063.13 122.097 1086.01 144.986C1108.9 167.875 1108.9 204.986 1086.01 227.875Z" fill="#FFA185"/>
</g>
<mask id="mask2" mask-type="alpha" maskUnits="userSpaceOnUse" x="985" y="127" width="119" height="119">
<path fill-rule="evenodd" clip-rule="evenodd" d="M1003.13 144.986C980.236 167.875 980.236 204.985 1003.13 227.875C1026.01 250.764 1063.12 250.764 1086.01 227.875C1108.9 204.985 1108.9 167.875 1086.01 144.986C1074.57 133.541 1059.57 127.819 1044.57 127.819C1029.57 127.819 1014.57 133.541 1003.13 144.986Z" fill="white"/>
</mask>
<g mask="url(#mask2)">
<path fill-rule="evenodd" clip-rule="evenodd" d="M1094.13 155.144C1105.13 177.102 1101.49 204.526 1083.17 222.846C1060.28 245.735 1023.17 245.735 1000.28 222.846C997.142 219.705 994.449 216.291 992.17 212.689C994.915 218.164 998.556 223.307 1003.12 227.875C1026.01 250.764 1063.13 250.764 1086.01 227.875C1105.76 208.126 1108.46 177.798 1094.13 155.144Z" fill="#F28464"/>
</g>
<mask id="mask3" mask-type="alpha" maskUnits="userSpaceOnUse" x="985" y="127" width="119" height="119">
<path fill-rule="evenodd" clip-rule="evenodd" d="M1003.13 144.986C980.236 167.875 980.236 204.985 1003.13 227.875C1026.01 250.764 1063.12 250.764 1086.01 227.875C1108.9 204.985 1108.9 167.875 1086.01 144.986C1074.57 133.541 1059.57 127.819 1044.57 127.819C1029.57 127.819 1014.57 133.541 1003.13 144.986Z" fill="white"/>
</mask>
<g mask="url(#mask3)">
<path fill-rule="evenodd" clip-rule="evenodd" d="M1012.36 150.748C1013.15 151.578 1012.35 153.623 1010.58 155.313C1008.8 157.003 1006.72 157.7 1005.93 156.87C1005.14 156.038 1005.94 153.995 1007.72 152.305C1009.49 150.615 1011.57 149.918 1012.36 150.748Z" stroke="white" stroke-width="0.75"/>
</g>
<mask id="mask4" mask-type="alpha" maskUnits="userSpaceOnUse" x="985" y="127" width="119" height="119">
<path fill-rule="evenodd" clip-rule="evenodd" d="M1003.13 144.986C980.236 167.875 980.236 204.985 1003.13 227.875C1026.01 250.764 1063.12 250.764 1086.01 227.875C1108.9 204.985 1108.9 167.875 1086.01 144.986C1074.57 133.541 1059.57 127.819 1044.57 127.819C1029.57 127.819 1014.57 133.541 1003.13 144.986Z" fill="white"/>
</mask>
<g mask="url(#mask4)">
<path fill-rule="evenodd" clip-rule="evenodd" d="M1052.65 186.025C1050.25 188.771 1046.07 189.055 1043.33 186.656C1040.58 184.257 1040.3 180.084 1042.69 177.336C1045.09 174.589 1049.27 174.306 1052.01 176.704C1054.76 179.104 1055.04 183.278 1052.65 186.025Z" stroke="white" stroke-width="0.75"/>
</g>
<mask id="mask5" mask-type="alpha" maskUnits="userSpaceOnUse" x="985" y="127" width="119" height="119">
<path fill-rule="evenodd" clip-rule="evenodd" d="M1003.13 144.986C980.236 167.875 980.236 204.985 1003.13 227.875C1026.01 250.764 1063.12 250.764 1086.01 227.875C1108.9 204.985 1108.9 167.875 1086.01 144.986C1074.57 133.541 1059.57 127.819 1044.57 127.819C1029.57 127.819 1014.57 133.541 1003.13 144.986Z" fill="white"/>
</mask>
<g mask="url(#mask5)">
<path fill-rule="evenodd" clip-rule="evenodd" d="M1091.59 195.708C1091.34 199.348 1089.51 202.184 1087.52 202.044C1085.53 201.903 1084.12 198.839 1084.38 195.201C1084.64 191.562 1086.46 188.725 1088.45 188.866C1090.44 189.006 1091.85 192.07 1091.59 195.708Z" stroke="white" stroke-width="0.75"/>
</g>
<mask id="mask6" mask-type="alpha" maskUnits="userSpaceOnUse" x="985" y="127" width="119" height="119">
<path fill-rule="evenodd" clip-rule="evenodd" d="M1003.13 144.986C980.236 167.875 980.236 204.985 1003.13 227.875C1026.01 250.764 1063.12 250.764 1086.01 227.875C1108.9 204.985 1108.9 167.875 1086.01 144.986C1074.57 133.541 1059.57 127.819 1044.57 127.819C1029.57 127.819 1014.57 133.541 1003.13 144.986Z" fill="white"/>
</mask>
<g mask="url(#mask6)">
<path fill-rule="evenodd" clip-rule="evenodd" d="M1036.18 224.064C1034.53 226.925 1029.48 227.1 1024.91 224.458C1020.33 221.817 1017.96 217.358 1019.61 214.499C1021.26 211.639 1026.31 211.463 1030.89 214.104C1035.46 216.746 1037.83 221.205 1036.18 224.064Z" stroke="white" stroke-width="0.75"/>
</g>
<mask id="mask7" mask-type="alpha" maskUnits="userSpaceOnUse" x="985" y="127" width="119" height="119">
<path fill-rule="evenodd" clip-rule="evenodd" d="M1003.13 144.986C980.236 167.875 980.236 204.985 1003.13 227.875C1026.01 250.764 1063.12 250.764 1086.01 227.875C1108.9 204.985 1108.9 167.875 1086.01 144.986C1074.57 133.541 1059.57 127.819 1044.57 127.819C1029.57 127.819 1014.57 133.541 1003.13 144.986Z" fill="white"/>
</mask>
<g mask="url(#mask7)">
<path fill-rule="evenodd" clip-rule="evenodd" d="M1067.6 135.045C1066.25 137.394 1062.59 137.819 1059.43 135.994C1056.27 134.171 1054.81 130.789 1056.16 128.44C1057.52 126.091 1061.18 125.666 1064.34 127.49C1067.5 129.314 1068.96 132.696 1067.6 135.045Z" stroke="white" stroke-width="0.75"/>
</g>
</g>
<g opacity="0.493955">
<mask id="mask8" mask-type="alpha" maskUnits="userSpaceOnUse" x="-428" y="791" width="747" height="599">
<path fill-rule="evenodd" clip-rule="evenodd" d="M291.13 795.651C286.683 798.016 282.738 801.89 277.929 803.373C256.171 810.091 243.607 836.634 220.84 836.539C217.21 836.525 213.043 835.842 210.408 838.345C208.134 840.508 208.12 844.063 207.067 847.023C204.873 853.191 198.31 856.454 192.335 859.106C145.195 880.023 98.0544 900.942 50.9127 921.863C29.2294 931.484 7.54474 941.107 -14.1372 950.73C-18.1838 952.524 -22.2973 954.363 -25.6099 957.302C-28.6578 960.006 -30.8885 963.523 -33.8368 966.336C-49.9167 981.677 -81.3905 971.964 -94.3762 990.01C-96.9561 993.594 -98.3969 997.886 -100.87 1001.54C-104.748 1007.27 -110.844 1011.03 -116.754 1014.61C-155.817 1038.28 -195.286 1062.15 -238.59 1076.62C-260.786 1084.03 -284.783 1089.44 -302.048 1105.27C-305.018 1107.99 -307.79 1111.03 -311.314 1112.97C-315.37 1115.22 -320.083 1115.84 -324.558 1117.02C-351.675 1124.2 -368.306 1151.1 -391.754 1166.52C-399.03 1171.31 -407.089 1175.06 -413.402 1181.07C-432.854 1199.59 -429.012 1231.08 -423.687 1257.44C-417.173 1289.68 -409.624 1323.92 -386.382 1347.15C-359.599 1373.93 -318.879 1379.45 -281.268 1383.54C-264.177 1385.39 -247.086 1387.25 -229.992 1389.11C-222.228 1389.95 -214.104 1390.75 -206.832 1387.89C-200.603 1385.45 -195.689 1380.57 -190.963 1375.83C-144.281 1328.95 -97.596 1282.07 -50.9114 1235.2C-31.0822 1215.28 -10.4371 1193.97 -3.60321 1166.69C-2.2157 1161.15 -1.3671 1155.3 1.74768 1150.53C6.82571 1142.75 16.4893 1139.73 24.6957 1135.4C36.6063 1129.11 46.2371 1119.3 55.5132 1109.53C94.8414 1068.06 131.543 1024.09 165.324 977.977C173.997 966.134 182.749 953.885 194.942 945.733C202.105 940.945 210.629 937.375 215.182 930.053C218.641 924.485 219.377 917.303 223.857 912.521C231.714 904.136 247.515 906.757 254.026 897.283C257.16 892.721 257.018 886.767 257.781 881.28C259.631 867.979 267.796 855.702 279.336 848.877C288.133 843.669 294.768 839.942 303.416 834.487C313.106 828.372 320.064 818.125 318.628 807.85C317.871 802.425 313.161 795.497 308.285 792.642C306.539 791.62 304.825 791.201 303.12 791.202C299.17 791.202 295.271 793.451 291.13 795.651Z" fill="white"/>
</mask>
<g mask="url(#mask8)">
<path fill-rule="evenodd" clip-rule="evenodd" d="M291.13 795.651C286.683 798.016 282.738 801.89 277.929 803.373C256.171 810.091 243.607 836.634 220.84 836.539C217.21 836.525 213.043 835.842 210.408 838.345C208.134 840.508 208.12 844.063 207.067 847.023C204.873 853.191 198.31 856.454 192.335 859.106C145.195 880.023 98.0544 900.942 50.9127 921.863C29.2294 931.484 7.54474 941.107 -14.1372 950.73C-18.1838 952.524 -22.2973 954.363 -25.6099 957.302C-28.6578 960.006 -30.8885 963.523 -33.8368 966.336C-49.9167 981.677 -81.3905 971.964 -94.3762 990.01C-96.9561 993.594 -98.3969 997.886 -100.87 1001.54C-104.748 1007.27 -110.844 1011.03 -116.754 1014.61C-155.817 1038.28 -195.286 1062.15 -238.59 1076.62C-260.786 1084.03 -284.783 1089.44 -302.048 1105.27C-305.018 1107.99 -307.79 1111.03 -311.314 1112.97C-315.37 1115.22 -320.083 1115.84 -324.558 1117.02C-351.675 1124.2 -368.306 1151.1 -391.754 1166.52C-399.03 1171.31 -407.089 1175.06 -413.402 1181.07C-432.854 1199.59 -429.012 1231.08 -423.687 1257.44C-417.173 1289.68 -409.624 1323.92 -386.382 1347.15C-359.599 1373.93 -318.879 1379.45 -281.268 1383.54C-264.177 1385.39 -247.086 1387.25 -229.992 1389.11C-222.228 1389.95 -214.104 1390.75 -206.832 1387.89C-200.603 1385.45 -195.689 1380.57 -190.963 1375.83C-144.281 1328.95 -97.596 1282.07 -50.9114 1235.2C-31.0822 1215.28 -10.4371 1193.97 -3.60321 1166.69C-2.2157 1161.15 -1.3671 1155.3 1.74768 1150.53C6.82571 1142.75 16.4893 1139.73 24.6957 1135.4C36.6063 1129.11 46.2371 1119.3 55.5132 1109.53C94.8414 1068.06 131.543 1024.09 165.324 977.977C173.997 966.134 182.749 953.885 194.942 945.733C202.105 940.945 210.629 937.375 215.182 930.053C218.641 924.485 219.377 917.303 223.857 912.521C231.714 904.136 247.515 906.757 254.026 897.283C257.16 892.721 257.018 886.767 257.781 881.28C259.631 867.979 267.796 855.702 279.336 848.877C288.133 843.669 294.768 839.942 303.416 834.487C313.106 828.372 320.064 818.125 318.628 807.85C317.871 802.425 313.161 795.497 308.285 792.642C306.539 791.62 304.825 791.201 303.12 791.202C299.17 791.202 295.271 793.451 291.13 795.651Z" fill="#FEDBD1"/>
</g>
<mask id="mask9" mask-type="alpha" maskUnits="userSpaceOnUse" x="57" y="844" width="140" height="67">
<path fill-rule="evenodd" clip-rule="evenodd" d="M175.994 851.358C172.232 852.613 168.433 853.888 165.039 855.969C160.229 858.921 156.322 863.449 151.055 865.438C145.009 867.719 138.38 866.852 132.336 869.387C128.435 871.021 125.758 873.595 122.573 876.274C112.631 884.635 98.8061 889.324 87.2655 895.026C84.8579 896.215 82.449 897.405 79.945 898.365C77.6583 899.243 75.2602 899.942 73.2508 901.359C72.0212 902.227 70.9519 903.355 69.5918 903.991C67.1829 905.119 64.3474 904.507 61.7482 905.033C59.1463 905.558 56.5418 908.477 58.0186 910.722C72.225 907.785 85.2261 900.712 98.0942 893.912C127.803 878.211 158.016 863.496 188.668 849.799C191.556 848.508 194.589 847.116 196.457 844.524C189.636 846.803 182.814 849.08 175.994 851.358Z" fill="white"/>
</mask>
<g mask="url(#mask9)">
<path fill-rule="evenodd" clip-rule="evenodd" d="M175.994 851.358C172.232 852.613 168.433 853.888 165.039 855.969C160.229 858.921 156.322 863.449 151.055 865.438C145.009 867.719 138.38 866.852 132.336 869.387C128.435 871.021 125.758 873.595 122.573 876.274C112.631 884.635 98.8061 889.324 87.2655 895.026C84.8579 896.215 82.449 897.405 79.945 898.365C77.6583 899.243 75.2602 899.942 73.2508 901.359C72.0212 902.227 70.9519 903.355 69.5918 903.991C67.1829 905.119 64.3474 904.507 61.7482 905.033C59.1463 905.558 56.5418 908.477 58.0186 910.722C72.225 907.785 85.2261 900.712 98.0942 893.912C127.803 878.211 158.016 863.496 188.668 849.799C191.556 848.508 194.589 847.116 196.457 844.524C189.636 846.803 182.814 849.08 175.994 851.358Z" fill="#F9D2C6"/>
</g>
<mask id="mask10" mask-type="alpha" maskUnits="userSpaceOnUse" x="-395" y="850" width="632" height="433">
<path fill-rule="evenodd" clip-rule="evenodd" d="M91.4972 930.117C13.5037 972.986 -64.4967 1015.86 -141.488 1060.52C-153.924 1067.73 -166.425 1075.05 -177.188 1084.6C-184.065 1090.7 -190.332 1097.77 -198.545 1101.88C-221.544 1113.38 -254.072 1099.17 -272.458 1117.19C-278.641 1123.26 -281.684 1131.88 -287.319 1138.47C-303.099 1156.9 -330.933 1152.98 -355.405 1157.25C-369.391 1171.85 -381.11 1188.64 -390.006 1206.83C-392.568 1212.07 -394.947 1217.67 -394.695 1223.5C-394.429 1229.62 -391.307 1235.2 -388.186 1240.46C-379.599 1254.94 -370.397 1269.05 -360.609 1282.73C-316.903 1257.72 -273.196 1232.7 -229.486 1207.68C-207.687 1195.2 -185.771 1182.64 -166.333 1166.7C-154.337 1156.86 -143.276 1145.73 -130.052 1137.63C-116.369 1129.25 -85.9745 1105.89 -74.0427 1091.81C-79.6851 1095.72 -112.658 1101.05 -117.498 1105.01C-122.336 1108.96 -125.224 1114.76 -128.526 1120.08C-142.717 1142.93 -166.825 1158.86 -192.946 1164.92C-209.185 1168.69 -227.595 1169.57 -239.307 1181.48C-249.537 1175.07 -261.728 1171.88 -273.769 1172.45C-245.896 1149.44 -211.456 1134.55 -175.661 1130.04C-166.59 1128.9 -156.832 1128.17 -149.704 1122.42C-136.777 1112 -138.655 1090.43 -126.699 1078.89C-115.759 1068.34 -98.2721 1070.45 -83.7142 1066.17C-75.6027 1063.79 -68.2761 1059.32 -61.0586 1054.9C41.6353 992.021 144.489 928.364 236.415 850.462C188.109 877.014 139.803 903.565 91.4972 930.117ZM-363.137 1158.94C-360.611 1158.25 -358.027 1157.7 -355.405 1157.25C-354.645 1156.45 -353.876 1155.66 -353.104 1154.88L-363.137 1158.94ZM-376.435 1164.31L-363.137 1158.94C-367.806 1160.2 -372.279 1161.91 -376.435 1164.31Z" fill="white"/>
</mask>
<g mask="url(#mask10)">
<path fill-rule="evenodd" clip-rule="evenodd" d="M91.4972 930.117C13.5037 972.986 -64.4967 1015.86 -141.488 1060.52C-153.924 1067.73 -166.425 1075.05 -177.188 1084.6C-184.065 1090.7 -190.332 1097.77 -198.545 1101.88C-221.544 1113.38 -254.072 1099.17 -272.458 1117.19C-278.641 1123.26 -281.684 1131.88 -287.319 1138.47C-303.099 1156.9 -330.933 1152.98 -355.405 1157.25C-369.391 1171.85 -381.11 1188.64 -390.006 1206.83C-392.568 1212.07 -394.947 1217.67 -394.695 1223.5C-394.429 1229.62 -391.307 1235.2 -388.186 1240.46C-379.599 1254.94 -370.397 1269.05 -360.609 1282.73C-316.903 1257.72 -273.196 1232.7 -229.486 1207.68C-207.687 1195.2 -185.771 1182.64 -166.333 1166.7C-154.337 1156.86 -143.276 1145.73 -130.052 1137.63C-116.369 1129.25 -85.9745 1105.89 -74.0427 1091.81C-79.6851 1095.72 -112.658 1101.05 -117.498 1105.01C-122.336 1108.96 -125.224 1114.76 -128.526 1120.08C-142.717 1142.93 -166.825 1158.86 -192.946 1164.92C-209.185 1168.69 -227.595 1169.57 -239.307 1181.48C-249.537 1175.07 -261.728 1171.88 -273.769 1172.45C-245.896 1149.44 -211.456 1134.55 -175.661 1130.04C-166.59 1128.9 -156.832 1128.17 -149.704 1122.42C-136.777 1112 -138.655 1090.43 -126.699 1078.89C-115.759 1068.34 -98.2721 1070.45 -83.7142 1066.17C-75.6027 1063.79 -68.2761 1059.32 -61.0586 1054.9C41.6353 992.021 144.489 928.364 236.415 850.462C188.109 877.014 139.803 903.565 91.4972 930.117ZM-363.137 1158.94C-360.611 1158.25 -358.027 1157.7 -355.405 1157.25C-354.645 1156.45 -353.876 1155.66 -353.104 1154.88L-363.137 1158.94ZM-376.435 1164.31L-363.137 1158.94C-367.806 1160.2 -372.279 1161.91 -376.435 1164.31Z" fill="#F9D2C6"/>
</g>
<mask id="mask11" mask-type="alpha" maskUnits="userSpaceOnUse" x="26" y="929" width="161" height="170">
<path fill-rule="evenodd" clip-rule="evenodd" d="M168.881 940.903C166.064 941.758 163.118 942.301 160.527 943.7C153.885 947.278 151.258 955.277 148.068 962.147C143.282 972.452 135.981 981.545 127.054 988.506C119.776 994.18 107.575 999.559 103.328 1008.04C101.935 1010.83 101.471 1014 100.24 1016.86C98.6413 1020.58 95.833 1023.62 93.0779 1026.57C70.826 1050.43 48.574 1074.29 26.3248 1098.15C31.468 1100.35 37.5114 1097.46 41.2594 1093.29C45.0074 1089.11 47.2428 1083.81 50.4903 1079.23C56.5964 1070.61 65.9282 1064.99 73.6465 1057.8C81.5707 1050.42 87.7737 1041.41 94.4173 1032.85C122.763 996.316 159.846 967.184 186.637 929.484C181.911 934.837 175.69 938.836 168.881 940.903Z" fill="white"/>
</mask>
<g mask="url(#mask11)">
<path fill-rule="evenodd" clip-rule="evenodd" d="M168.881 940.903C166.064 941.758 163.118 942.301 160.527 943.7C153.885 947.278 151.258 955.277 148.068 962.147C143.282 972.452 135.981 981.545 127.054 988.506C119.776 994.18 107.575 999.559 103.328 1008.04C101.935 1010.83 101.471 1014 100.24 1016.86C98.6413 1020.58 95.833 1023.62 93.0779 1026.57C70.826 1050.43 48.574 1074.29 26.3248 1098.15C31.468 1100.35 37.5114 1097.46 41.2594 1093.29C45.0074 1089.11 47.2428 1083.81 50.4903 1079.23C56.5964 1070.61 65.9282 1064.99 73.6465 1057.8C81.5707 1050.42 87.7737 1041.41 94.4173 1032.85C122.763 996.316 159.846 967.184 186.637 929.484C181.911 934.837 175.69 938.836 168.881 940.903Z" fill="#F9D2C6"/>
</g>
<path fill-rule="evenodd" clip-rule="evenodd" d="M320.934 772.484C312.448 774.501 303.386 774.909 295.103 772.175C293.313 771.587 291.486 770.843 289.615 771.053C287.645 771.274 285.958 772.519 284.417 773.769C276.855 779.903 270.277 787.248 265.01 795.442C262.76 798.939 260.762 803.593 263.102 807.029C273.345 796.684 285.403 788.835 301.2 787.188C304.043 786.892 307.045 786.352 309.643 787.547C315.353 790.173 313.154 793.028 315.376 793.099C316.873 793.147 318.584 789.541 319.895 788.813C328.606 783.979 337.172 777.947 342.741 769.507C343.646 768.134 346.31 765.089 344.379 764.17C343.071 763.547 338.414 766.45 337.11 766.993C331.85 769.181 326.485 771.165 320.934 772.484Z" fill="#EAC2B6"/>
<path fill-rule="evenodd" clip-rule="evenodd" d="M340.784 799.782C336.265 807.253 333.095 815.765 333.149 824.501C333.163 826.387 333.309 828.357 332.533 830.076C331.719 831.887 330.019 833.113 328.359 834.198C320.209 839.523 311.21 843.542 301.808 846.049C297.796 847.119 292.758 847.597 290.212 844.311C303.186 837.722 314.343 828.637 320.757 814.082C321.909 811.464 323.343 808.766 323.005 805.923C322.262 799.675 318.875 800.896 319.489 798.756C319.904 797.313 323.855 796.789 324.948 795.763C332.216 788.943 340.575 782.628 350.302 779.908C351.886 779.465 355.597 777.861 355.878 779.983C356.069 781.421 351.881 784.969 350.966 786.045C347.272 790.39 343.741 794.895 340.784 799.782Z" fill="#EAC2B6"/>
<path opacity="0.301223" fill-rule="evenodd" clip-rule="evenodd" d="M321.388 802.883C317.318 805.177 314.978 806.482 314.978 806.482L307.318 795.947C307.318 795.947 309.275 794.116 312.704 790.941C332.853 772.273 403.867 707.009 427.017 692.522C435.021 687.515 442.59 683.393 449.611 680.01C478.992 665.829 498.605 664.467 498.605 664.467C498.605 664.467 491.299 682.755 468.808 706.412C463.44 712.065 457.2 718.018 449.987 724.109C429.116 741.733 345.309 789.402 321.388 802.883Z" fill="#DCBDB3"/>
<path fill-rule="evenodd" clip-rule="evenodd" d="M321.388 802.883C317.318 805.177 314.978 806.482 314.978 806.482L307.318 795.947C307.318 795.947 309.275 794.116 312.704 790.941L321.388 802.883Z" fill="#E0B19A"/>
<path fill-rule="evenodd" clip-rule="evenodd" d="M273.852 829.157L272.483 827.275L342.788 775.99L344.157 777.872L273.852 829.157Z" fill="#EAC2B6"/>
<mask id="mask12" mask-type="alpha" maskUnits="userSpaceOnUse" x="449" y="664" width="50" height="43">
<path fill-rule="evenodd" clip-rule="evenodd" d="M449.61 664.466H498.605V706.412H449.61V664.466Z" fill="white"/>
</mask>
<g mask="url(#mask12)">
<path fill-rule="evenodd" clip-rule="evenodd" d="M468.808 706.412L449.61 680.01C478.993 665.829 498.605 664.466 498.605 664.466C498.605 664.466 491.299 682.755 468.808 706.412Z" fill="#EAC2B6"/>
</g>
<path fill-rule="evenodd" clip-rule="evenodd" d="M444.032 719.937C438.606 723.894 431.003 722.696 427.052 717.263C423.1 711.829 424.294 704.214 429.722 700.257C435.146 696.299 442.749 697.495 446.701 702.93C450.652 708.363 449.456 715.978 444.032 719.937Z" fill="#EAC2B6"/>
<path fill-rule="evenodd" clip-rule="evenodd" d="M442.032 717.187C438.122 720.041 432.643 719.178 429.795 715.26C426.949 711.344 427.809 705.857 431.72 703.004C435.63 700.152 441.108 701.015 443.956 704.931C446.804 708.848 445.942 714.335 442.032 717.187Z" fill="#FFDED6"/>
<path fill-rule="evenodd" clip-rule="evenodd" d="M415.262 735.299C411.352 738.151 405.872 737.288 403.024 733.372C400.177 729.456 401.038 723.969 404.949 721.116C408.859 718.263 414.338 719.125 417.186 723.043C420.033 726.96 419.172 732.446 415.262 735.299Z" fill="#EAC2B6"/>
<path fill-rule="evenodd" clip-rule="evenodd" d="M413.821 733.317C411.004 735.374 407.054 734.753 405.002 731.929C402.949 729.107 403.57 725.154 406.389 723.097C409.207 721.041 413.156 721.664 415.208 724.485C417.26 727.308 416.638 731.263 413.821 733.317Z" fill="#FFDED6"/>
<path fill-rule="evenodd" clip-rule="evenodd" d="M390.9 753.411C386.99 756.263 381.511 755.4 378.662 751.484C375.815 747.568 376.676 742.08 380.587 739.228C384.498 736.376 389.976 737.239 392.824 741.155C395.671 745.072 394.81 750.558 390.9 753.411Z" fill="#EAC2B6"/>
<path fill-rule="evenodd" clip-rule="evenodd" d="M389.46 751.431C386.642 753.486 382.694 752.864 380.641 750.041C378.588 747.22 379.209 743.265 382.027 741.209C384.845 739.154 388.794 739.775 390.846 742.598C392.898 745.42 392.278 749.374 389.46 751.431Z" fill="#FFDED6"/>
</g>
<path opacity="0.509859" fill-rule="evenodd" clip-rule="evenodd" d="M923.735 -6.90121C768.804 29.9055 607.575 79.6597 515.702 180.035C474.498 225.053 449.942 277.72 408.03 322.367C365.782 367.372 306.2 403.146 238.342 424.253C149.901 451.759 50.4251 454.257 -38.1488 481.516C-133.288 510.799 -210.559 567.711 -262.299 634.263C-314.039 700.817 -341.64 776.649 -355.025 853C-452.147 735.76 -482.661 588.687 -437.617 454.922C-423.476 412.931 -400.61 370.513 -356.574 342.431C-278.754 292.808 -164.078 302.575 -62.4948 293.994C63.2958 283.369 186.809 237.138 258.788 159.186C311.755 101.831 339.927 26.6315 420.538 -8.29727C465.216 -27.6568 518.663 -30.874 570.013 -34.8299C816.805 -53.8337 1069.45 -103.84 1256.68 -225.693C1269.43 -233.99 1282.72 -242.935 1299.31 -245.319C1348.96 -252.445 1377.84 -201.957 1368.13 -171.733C1357.03 -137.177 1301.35 -117.717 1263.3 -101.883C1157.24 -57.7624 1038.66 -34.2048 923.735 -6.90121Z" fill="#F9EAE7"/>
<path opacity="0.509859" fill-rule="evenodd" clip-rule="evenodd" d="M1543.79 226.795C1476.24 256.78 1411.15 291.292 1360.13 336.01C1309.1 380.731 1272.8 436.648 1269.71 495.434C1266.62 554.006 1295.66 615.123 1267.61 669.846C1237.08 729.42 1151.17 759.405 1081.43 796.034C934.557 873.174 839.593 1003.15 832 1137.43C938.891 1154.71 1049.25 1154.5 1158.6 1154.22C1258.72 1153.96 1358.84 1153.7 1458.97 1153.44C1453.82 1161.41 1438.48 1162.9 1428.04 1158.75C1417.61 1154.6 1411.04 1146.63 1405.21 1138.93C1326.18 1034.58 1293.74 901.736 1366.2 794.744C1390.04 759.557 1424.18 728.455 1444.42 692.028C1471.59 643.133 1471.72 588.221 1464.63 535.528C1457.4 481.737 1444.33 423.338 1481.15 376.845C1501.56 351.07 1534.81 332.733 1567.17 315.119C1609.1 292.296 1651.03 269.473 1692.97 246.648C1724.17 229.663 1846.38 141.391 1749.06 134.223C1683.71 129.409 1595.46 203.859 1543.79 226.795Z" fill="#F9EAE7"/>
<circle opacity="0.318917" cx="1262" cy="290" r="6" fill="#FFA185"/>
<circle opacity="0.318917" cx="198" cy="662" r="6" fill="#FFD1C3"/>
<circle opacity="0.318917" cx="117.5" cy="719.5" r="1.5" fill="#FFA185"/>
<circle opacity="0.318917" cx="656.5" cy="533.5" r="4.5" fill="#8766FF"/>
<circle opacity="0.318917" cx="1155.5" cy="268.5" r="4.5" fill="#6236FF"/>
<circle opacity="0.318917" cx="661.5" cy="182.5" r="4.5" fill="#F7B500"/>
<path fill-rule="evenodd" clip-rule="evenodd" d="M299.999 70C297.378 81.0013 286 84.5008 286 84.5008C286 84.5008 297.378 87.9987 299.999 99C302.62 87.9987 314 84.5008 314 84.5008C314 84.5008 302.62 81.0013 299.999 70Z" fill="#FFD1C3"/>
<path fill-rule="evenodd" clip-rule="evenodd" d="M66.9995 194C65.3147 201.208 58 203.501 58 203.501C58 203.501 65.3147 205.792 66.9995 213C68.6843 205.792 76 203.501 76 203.501C76 203.501 68.6843 201.208 66.9995 194Z" fill="#FFD1C3"/>
<path fill-rule="evenodd" clip-rule="evenodd" d="M1449 296C1447.88 300.552 1443 302 1443 302C1443 302 1447.88 303.448 1449 308C1450.12 303.448 1455 302 1455 302C1455 302 1450.12 300.552 1449 296Z" fill="#FFD1C3"/>
<path fill-rule="evenodd" clip-rule="evenodd" d="M1057.5 738C1054.97 748.622 1044 752.001 1044 752.001C1044 752.001 1054.97 755.378 1057.5 766C1060.03 755.378 1071 752.001 1071 752.001C1071 752.001 1060.03 748.622 1057.5 738Z" fill="#FFD1C3"/>
</g>
</svg>
